<svg width="1082" height="1013" viewBox="0 0 1082 1013" fill="none" xmlns="http://www.w3.org/2000/svg">
<path d="M970.252 809.328H124.603C120.44 809.328 117.033 806.386 117.033 802.793C117.033 799.198 120.44 796.258 124.603 796.258H970.252C974.417 796.258 977.824 799.198 977.824 802.793C977.824 806.386 974.417 809.328 970.252 809.328Z" fill="#D6D1DE"/>
<path d="M580.289 732.948C587.42 736.486 613.654 711.716 613.551 716.31C613.25 729.62 618.209 772.575 612.499 772.575C609.741 772.575 577.082 769.045 577.082 769.045L580.289 732.948Z" fill="#B0B0B0"/>
<path d="M446.442 733.855C453.573 737.393 482.817 731.311 479.803 734.763C471.087 744.745 480.104 772.575 472.44 772.575C469.682 772.575 433.818 770.76 433.818 770.76L446.442 733.855Z" fill="#B0B0B0"/>
<path d="M625.128 792.903C625.092 799.147 624.357 803.515 622.723 803.66C624.381 798.482 526.546 801.265 526.124 801.252C522.278 801.24 515.966 800.756 515.75 793.145C515.738 792.577 515.75 792.032 515.774 791.524C515.87 789.612 516.255 787.991 516.868 786.636C519.597 780.549 524.61 779.727 530.187 779.327C531.51 779.23 532.76 779.17 533.842 779.049C536.188 778.795 538.243 778.311 540.083 777.609C540.478 777.464 540.851 777.319 541.225 777.149C542.63 776.532 543.918 775.794 545.132 774.971L545.144 774.959C545.926 774.427 546.659 773.87 547.404 773.265L547.415 773.253C548.077 772.721 548.739 772.152 549.388 771.559C550.793 770.301 552.189 768.933 553.679 767.518C554.161 767.046 554.652 766.574 555.157 766.09C555.892 765.4 556.649 764.686 557.443 763.972C557.695 763.755 557.935 763.525 558.176 763.307L558.235 763.246C559.33 762.23 560.304 761.214 561.168 760.233C561.458 759.895 561.746 759.568 562.011 759.241C563.033 758.007 563.898 756.809 564.644 755.66H564.656C564.885 755.297 565.1 754.946 565.317 754.595C565.4 754.45 565.496 754.292 565.582 754.147C566.122 753.215 566.603 752.32 567.049 751.449C569.453 746.669 570.691 742.894 574.97 740.45C580.033 737.582 595.541 737.655 598.595 743.427C598.786 743.802 598.955 744.189 599.1 744.624C599.881 746.948 599.977 752.151 600.866 756.555C601.515 759.822 602.634 762.545 604.69 763.561C614.152 768.183 614.572 761.504 614.921 756.047L614.909 756.023C615.185 751.279 614.224 746.331 614.224 746.331C617.506 746.391 620.45 755.151 622.458 765.799C622.53 766.175 622.567 766.477 622.615 766.707C623.769 773.168 624.61 780.235 624.948 786.442C625.068 788.741 625.14 790.907 625.128 792.903Z" fill="#353535"/>
<path d="M567.397 778.601C558.693 776.375 549.977 776.06 541.151 777.718C540.755 777.79 540.383 777.742 540.083 777.609C540.478 777.464 540.851 777.319 541.225 777.149C542.63 776.532 543.918 775.794 545.132 774.971L545.144 774.959C545.926 774.427 546.659 773.87 547.404 773.265L547.415 773.253C554.437 772.721 561.41 773.326 568.358 775.104C570.606 775.685 569.656 779.182 567.397 778.601" fill="#F2F2F2"/>
<path d="M575.464 769.212C568.299 766.767 561.061 766.162 553.679 767.518C554.161 767.046 554.652 766.574 555.157 766.09C555.892 765.4 556.649 764.686 557.443 763.972C557.695 763.754 557.934 763.525 558.176 763.307C564.318 762.871 570.427 763.658 576.426 765.715C578.614 766.465 577.664 769.974 575.464 769.212" fill="#F2F2F2"/>
<path d="M583.385 759.12C576.473 755.938 568.864 755.998 562.011 759.241C563.033 758.007 563.897 756.809 564.644 755.66H564.656C564.884 755.297 565.1 754.946 565.317 754.595C565.4 754.45 565.496 754.292 565.582 754.147C572.098 752.429 578.818 753.046 585.202 755.986C587.317 756.954 585.479 760.088 583.385 759.12Z" fill="#F2F2F2"/>
<path d="M625.124 792.9C625.092 799.153 625.376 803.664 622.718 803.664C620.059 803.664 525.877 803.664 523.119 803.664C520.361 803.664 515.97 800.759 515.751 793.144C515.736 792.579 515.744 792.036 515.777 791.525C536.754 791.3 625.124 792.9 625.124 792.9Z" fill="#F4F4F4"/>
<path d="M484.851 792.903C484.817 799.147 484.095 803.515 482.447 803.66C484.119 798.482 389.876 801.265 389.468 801.252C385.62 801.24 379.308 800.756 379.093 793.145C379.069 792.577 379.08 792.032 379.117 791.524C379.213 789.612 379.598 787.991 380.199 786.636C382.939 780.549 387.941 779.727 393.52 779.327C394.854 779.23 396.105 779.17 397.175 779.049C400.024 778.734 402.416 778.093 404.555 777.149C405 776.956 405.434 776.75 405.853 776.52C406.768 776.06 407.633 775.528 408.475 774.971V774.959C409.221 774.451 409.942 773.919 410.638 773.35C411.349 772.781 412.034 772.188 412.731 771.559C413.633 770.748 414.535 769.901 415.46 769.006C416.434 768.074 417.432 767.094 418.501 766.09C418.777 765.824 419.054 765.557 419.344 765.291C419.812 764.856 420.28 764.42 420.785 763.972C421.051 763.73 421.315 763.488 421.568 763.246C422.674 762.23 423.634 761.214 424.501 760.233L424.633 760.076C425.727 758.83 426.653 757.62 427.445 756.458C427.627 756.192 427.807 755.926 427.975 755.66H427.987C428.216 755.297 428.432 754.946 428.647 754.595C429.297 753.506 429.863 752.453 430.38 751.449C432.796 746.669 434.023 742.894 438.313 740.45C443.364 737.582 449.267 737.655 452.308 743.427C452.501 743.802 452.681 744.189 452.825 744.624C453.594 746.948 453.703 752.151 454.591 756.555C455.242 759.822 456.323 762.641 458.416 763.561C465.461 766.634 474.898 766.017 474.646 756.047L474.632 756.023C474.922 751.279 474.994 746.863 474.994 746.863C478.276 746.923 480.188 755.151 482.184 765.799C482.256 766.175 482.304 766.477 482.34 766.707C483.506 773.168 484.336 780.235 484.671 786.442C484.803 788.741 484.865 790.907 484.851 792.903" fill="#353535"/>
<path d="M484.855 792.9C484.821 799.153 485.105 803.664 482.447 803.664C479.789 803.664 389.215 803.664 386.456 803.664C383.698 803.664 379.306 800.759 379.087 793.144C379.074 792.579 379.08 792.036 379.114 791.525C400.09 791.3 484.855 792.9 484.855 792.9" fill="#F4F4F4"/>
<path d="M419.979 777.706C415.447 777.355 410.904 777.004 406.372 776.641C406.178 776.629 406.011 776.593 405.853 776.52C406.768 776.06 407.633 775.528 408.475 774.971V774.959C409.221 774.451 409.942 773.918 410.638 773.35C413.753 773.592 416.867 773.834 419.979 774.076C422.277 774.257 422.288 777.887 419.979 777.706" fill="#F2F2F2"/>
<path d="M426.304 770.252C422.698 769.066 419.091 768.655 415.46 769.006C416.434 768.074 417.432 767.094 418.501 766.09C418.777 765.824 419.054 765.557 419.344 765.291C422.011 765.412 424.657 765.896 427.265 766.755C429.466 767.469 428.516 770.978 426.304 770.252" fill="#F2F2F2"/>
<path d="M437.616 760.004C433.289 760.076 428.961 760.112 424.633 760.076C425.727 758.83 426.653 757.62 427.445 756.458C430.837 756.458 434.227 756.434 437.616 756.374C439.95 756.325 439.938 759.967 437.616 760.004Z" fill="#F2F2F2"/>
<path d="M802.892 617.883L814.379 799.172" stroke="#B6BDB8" stroke-width="17.3333" stroke-miterlimit="10" stroke-linejoin="round"/>
<path d="M686.417 621.674L687.548 603.223C687.548 596.507 692.957 591.063 699.631 591.063H784.123C794.193 591.063 802.357 599.279 802.357 609.415L802.892 617.883" stroke="#7A8193" stroke-width="17.3333" stroke-miterlimit="10" stroke-linejoin="round"/>
<path d="M675.526 799.172L686.417 621.674" stroke="#B6BDB8" stroke-width="17.3333" stroke-miterlimit="10" stroke-linejoin="round"/>
<path d="M493.399 799.172L505.421 603.223C505.421 596.507 510.83 591.063 517.504 591.063H601.995C612.065 591.063 620.229 599.279 620.229 609.415L632.251 799.172" stroke="#7A8193" stroke-width="17.3333" stroke-miterlimit="10" stroke-linejoin="round"/>
<path d="M815.297 558.117C816.413 565.429 811.339 571.979 804.02 572.67L662.075 586.084C654.755 586.775 648.551 581.293 648.285 573.898L646.206 515.98C645.941 508.586 647.056 496.635 648.687 489.421L671.129 390.061C672.758 382.845 679.908 375.406 687.018 373.527L762.998 353.453C770.107 351.575 781.94 350.039 789.29 350.039H804.906C812.257 350.039 817.818 356.074 817.263 363.451L807.82 489.124C807.265 496.502 807.725 508.521 808.842 515.833L815.297 558.117" fill="#282727"/>
<path d="M790.998 514.591C791.824 521.22 793.248 532.649 794.161 539.99L796.636 559.88C797.548 567.222 792.302 573.729 784.975 574.342L686.98 582.544C679.655 583.157 667.667 584.159 660.342 584.771L642.966 586.223C635.641 586.836 629.431 581.288 629.165 573.893L627.087 515.983C626.823 508.59 627.713 496.59 629.066 489.318L652.518 363.265C653.872 355.993 660.993 350.043 668.343 350.043H789.991C797.343 350.043 802.809 356.072 802.139 363.439L790.714 489.144C790.043 496.512 790.171 507.963 790.998 514.591Z" fill="#282727"/>
<path d="M673.662 583.658C677.207 583.362 680.752 583.065 683.836 582.806L673.662 583.658Z" fill="#759629"/>
<path d="M796.763 573.356L798.294 573.211L798.296 573.228L796.763 573.356Z" fill="#9DAB81"/>
<path d="M724.341 579.417L784.975 574.342C792.285 573.731 797.524 567.252 796.642 559.931L798.294 573.211L796.763 573.356L724.341 579.417V579.417ZM795.203 548.36L794.162 539.99C793.691 536.219 793.088 531.368 792.5 526.643H792.501L795.203 548.36" fill="#759629"/>
<path d="M673.662 583.658V561.588H721.907C737.619 561.588 750.003 522.795 750.003 506.98L750.096 455.492H760.338C760.653 456.642 760.823 457.853 760.823 459.103V513.111C760.823 520.584 766.841 526.643 774.266 526.643H792.5C793.088 531.368 793.691 536.219 794.162 539.99L795.203 548.36L796.642 559.931C797.524 567.252 792.285 573.731 784.975 574.342L724.341 579.417L683.836 582.806C680.752 583.065 677.207 583.362 673.662 583.658" fill="#282727"/>
<path d="M685.083 587.341H539.254V562.484H799.749L685.083 587.341Z" fill="#282727"/>
<path d="M708.31 587.341C708.31 587.341 786.176 587.341 799.85 587.341C817.443 587.341 817.443 571.689 816.442 565.143C815.684 560.179 814.858 555.157 814.858 555.157L809.439 562.484H717.342C717.342 562.484 697.088 560.321 697.088 576.858C697.088 586.941 708.31 587.341 708.31 587.341Z" fill="#282727"/>
<path d="M678.47 611.448H516.232V599.348C516.232 579.434 532.33 563.233 552.116 563.233H692.296V587.433C685.768 587.433 678.47 592.778 678.47 599.348V611.448Z" fill="#282727"/>
<path d="M757.015 358.655L779.457 434.885L738.982 441.741L731.368 359.865L757.015 358.655Z" fill="#4C6325"/>
<path d="M930.216 467L954.26 802.361H936.618L912.573 467H930.216Z" fill="#B6BDB8"/>
<path d="M838.183 467L862.228 802.361H844.573L820.529 467H838.183" fill="#B6BDB8"/>
<path d="M604.451 345.701L575.59 426.731L539.641 423.896C532.36 423.321 525.994 428.796 525.424 436.124C524.853 443.453 530.293 449.86 537.575 450.434L583.596 454.064C589.528 454.532 595.07 450.924 597.078 445.286L629.349 354.684C631.813 347.764 628.238 340.143 621.363 337.663C614.487 335.182 606.917 338.781 604.452 345.701H604.451" fill="#F7967C"/>
<path d="M597.12 366.318L616.756 389.711L624.17 369.141L598.523 363.091L597.12 366.318Z" fill="#F5785E"/>
<path d="M750.362 308.807L750.003 506.98C750.003 522.795 737.619 561.588 721.907 561.588H636.537C621.195 561.588 612.263 549.318 611.771 533.891L617.782 533.83C617.614 529.148 617.915 505.323 618.408 475.218C618.985 439.148 619.838 394.063 620.45 362.083C620.92 338.149 617.649 321.548 617.649 321.548C617.649 303.821 628.168 280.965 650.433 271.89C656.602 269.373 663.658 267.909 671.654 267.909L699.714 268.598C700.615 268.586 701.541 268.61 702.491 268.671C720.5 269.76 744.893 282.332 749.233 299.695C749.965 302.624 750.362 305.673 750.362 308.807" fill="#4BA5E0"/>
<path d="M702.623 269.336L701.721 271.442C701.299 272.422 691.166 295.533 672.003 295.533C664.02 295.533 659.294 292.351 656.721 289.677C652.333 285.091 651.589 279.379 651.479 276.959C651.479 276.959 650.218 271.787 656.534 269.836C661.096 268.427 666.179 267.909 671.654 267.909L699.714 268.598C700.615 268.586 701.541 268.61 702.491 268.671L702.623 269.336" fill="white"/>
<path d="M750.362 428.873H750.145L750.238 377.33C750.279 377.462 750.321 377.594 750.362 377.726V428.873" fill="#3B6861"/>
<path d="M750.145 428.873H731.368V342.723L740.039 347.694C740.193 348.606 740.444 349.516 740.799 350.41H740.797C744.111 358.761 747.3 368.01 750.238 377.33L750.145 428.873V428.873ZM743.927 408.324C744.234 408.351 744.582 408.365 744.983 408.365L743.927 408.324Z" fill="#3E87BF"/>
<path d="M646.574 326.763L635.767 357.013C632.821 365.253 632.594 374.788 624.37 374.788C623.577 374.788 622.253 374.546 620.764 374.183H620.74C617.963 373.53 614.632 372.501 613.178 371.981C605.508 369.198 597.471 362.234 597.471 362.234C597.471 362.234 595.732 358.598 596.719 355.827C596.719 355.827 597.597 353.71 599.062 350.213C604.041 338.367 615.883 310.755 623.769 296.743C633.988 278.593 630.382 293.984 640.805 297.747C651.216 301.522 650.314 316.272 646.574 326.763" fill="#4BA5E0"/>
<path d="M620.463 360.982C620.463 361.345 620.463 361.72 620.45 362.083C620.378 365.894 620.295 369.9 620.222 374.05C617.566 373.409 614.548 372.465 613.178 371.981C605.508 369.198 593.714 363.595 593.714 363.595C593.714 363.595 595.732 358.598 596.719 355.827C596.719 355.827 596.754 355.295 598.222 351.798L620.463 360.982" fill="white"/>
<path d="M740.797 350.41C744.602 360.002 748.243 370.773 751.53 381.482C756.462 397.55 760.606 413.489 763.501 425.361C764.949 431.299 766.086 436.222 766.858 439.649C767.244 441.361 767.54 442.699 767.736 443.604C767.834 444.056 767.909 444.399 767.957 444.626C767.981 444.739 767.999 444.824 768.011 444.878L768.026 444.951L780.962 442.183V428.873H717.926C710.623 428.873 704.702 434.832 704.702 442.183C704.702 449.533 710.623 455.493 717.926 455.493H780.962C784.931 455.493 788.742 453.663 791.24 450.558C793.737 447.453 794.722 443.321 793.897 439.414C793.867 439.275 790.846 424.979 785.795 405.543C783.268 395.821 780.234 384.815 776.799 373.624C773.363 362.43 769.532 351.06 765.364 340.543C762.656 333.716 754.962 330.391 748.179 333.116C741.395 335.839 738.091 343.583 740.799 350.41H740.797Z" fill="#F7967C"/>
<path d="M764.5 421.5C763.168 417.197 746.15 381.383 746.23 361.882L773.229 348C781.892 367.772 794.492 427.445 792.5 441.5L764.5 421.5Z" fill="#F7967C"/>
<path d="M779.157 358.15L740.685 369.948C740.685 369.948 739.303 366.015 737.715 361.647C736.586 358.574 735.372 355.259 734.458 352.96C722.891 323.786 715.415 315.679 713.407 313.889C705.1 306.52 704.305 293.766 711.628 285.417C718.949 277.056 731.68 277.044 739.784 284.643C751.409 295.533 760.775 310.452 771.702 337.992C772.832 340.823 774.131 344.32 775.345 347.599C777.401 353.189 779.157 358.15 779.157 358.15" fill="#4BA5E0"/>
<path d="M658.671 276.132C658.671 276.132 658.232 288.275 672.009 288.275C686.642 288.275 695.101 268.56 695.101 268.56L687.458 231.276L648.987 229.156L658.671 276.132Z" fill="#F8A478"/>
<path d="M656.692 266.534C666.911 267.76 694.03 263.554 692.671 256.964C691.313 250.375 685.495 221.751 685.495 221.751L647.515 222.01L656.692 266.534Z" fill="#EE7C6B"/>
<path d="M621.098 207.39C621.098 216.207 628.731 236.526 633.469 242.604C635.49 245.197 638.279 251.087 644.693 253.044C650.528 254.825 654.727 256.283 655.552 260.67C656.191 264.052 661.164 256.02 663.617 256.02C692.77 256.02 707.18 224.414 707.18 202.882L698.195 174.637C698.195 151.064 682.652 134.12 660.028 134.294C637.405 134.47 619.19 149.994 619.19 173.566L621.098 207.39Z" fill="#EE7C6B"/>
<path d="M529.722 445.368C518.964 445.368 516.439 445.368 509.146 445.368C501.852 445.368 495.924 446.165 495.924 439.22C495.924 432.276 499.821 424.086 516.19 424.086C532.557 424.086 526.03 424.086 535.005 424.086C543.98 424.086 540.479 445.368 529.722 445.368" fill="#F7967C"/>
<path d="M750.362 475.218V532.959C750.362 548.774 737.619 561.588 721.907 561.588H636.537C621.197 561.588 612.263 549.318 611.771 533.891L617.782 533.83C617.614 529.148 617.915 505.323 618.408 475.218H750.362Z" fill="#356E9F"/>
<path d="M321.975 469.543L297.931 802.361H280.29L304.334 469.543H321.975Z" fill="#7A8193"/>
<path d="M231.28 469.543L207.235 802.361H189.594L213.638 469.543H231.28Z" fill="#B6BDB8"/>
<path d="M487.927 739.726C488.02 739.279 495.962 710.891 508.488 663.289C526.29 595.638 537.414 570.941 542.268 562.397H624.692C638.346 562.397 649.416 551.256 649.416 537.511C649.416 523.768 638.346 508.458 624.692 508.458H528.98C490.668 508.458 488.374 544.521 481.595 561.656C474.25 580.216 434.109 723.689 433.645 725.896C432.276 732.401 442.977 737.766 454.668 740.247C467.145 742.893 486.652 745.769 487.927 739.726" fill="#31304B"/>
<path d="M616.212 508.167C607.924 508.167 592.632 516.208 585.911 540.201C583.953 547.196 582.264 556.541 580.748 568.772C578.412 587.64 576.473 613.707 574.986 646.25C572.481 701.046 570.575 733.604 570.571 734.158C570.527 740.959 628.307 746.207 628.352 739.293C628.356 738.837 629.88 711.261 631.816 662.377C634.148 603.392 637.358 575.431 639.612 562.397H725.357C739.255 562.397 750.522 547.484 750.522 533.496V508.167H616.212" fill="#393B58"/>
<path d="M773.251 413.099C773.171 413.019 772.929 412.79 772.542 412.441C772.837 412.643 773.077 412.87 773.251 413.099Z" fill="#C8645A"/>
<path d="M744.984 408.365C744.582 408.365 744.234 408.351 743.927 408.324L744.984 408.365Z" fill="#2B5C8D"/>
<path d="M693.772 410.812L673.045 402.977C670.735 402.104 668.159 403.281 667.291 405.607C666.423 407.932 667.593 410.525 669.903 411.399L690.63 419.234C692.94 420.107 695.517 418.93 696.385 416.604C697.253 414.279 696.083 411.686 693.772 410.812Z" fill="#F7967C"/>
<path fill-rule="evenodd" clip-rule="evenodd" d="M686.995 393.994L686.864 395.693L686.519 400.227L686.091 405.919L683.319 442.403L682.415 454.37H645.542L645.471 453.504L644.922 447.423L644.71 444.978L644.484 442.403L651.12 438.615L652.623 434.683L649.617 427.725L641.282 405.919L640.794 400.227L640.39 395.693L640.187 393.421L686.995 393.994" fill="#ECDFB1"/>
<path fill-rule="evenodd" clip-rule="evenodd" d="M642.474 385.335H684.711V381.167H642.474V385.335Z" fill="#ECDFB1"/>
<path fill-rule="evenodd" clip-rule="evenodd" d="M637.643 395.698H689.543V385.336H637.643V395.698Z" fill="#F2EBCB"/>
<path fill-rule="evenodd" clip-rule="evenodd" d="M686.091 405.916L683.323 442.406H644.485L641.286 405.916H686.091Z" fill="#975208"/>
<path fill-rule="evenodd" clip-rule="evenodd" d="M640.394 395.698L640.68 399.019H686.614L686.867 395.698H640.394Z" fill="#AEA683"/>
<path d="M682.414 454.371H673.987V454.37H682.415L682.414 454.371ZM682.535 452.778L683.061 445.826L683.146 444.743L682.535 452.778ZM685.945 407.854L686.091 405.916L686.519 400.227L686.611 399.019H686.614L686.867 395.698L686.614 399.019L686.522 400.229L686.091 405.916L685.945 407.854Z" fill="#3A7DC5"/>
<path d="M689.544 395.698H689.543V385.336H679.063H684.711V381.169V385.333H689.544V395.698" fill="#3A7DC5"/>
<path d="M682.415 454.37H673.987L674.049 453.236H682.477L683.061 445.826L682.535 452.778L682.414 454.37H682.415ZM686.091 405.916H676.606L676.912 400.229L676.979 399.019H686.611L686.519 400.227L686.091 405.916Z" fill="#BCA89B"/>
<path d="M684.711 385.335H679.063V385.333H675.624V381.169H684.711V385.335" fill="#BCA89B"/>
<path d="M686.867 395.698H679.063V385.336H689.543V395.698H686.867Z" fill="#C1B1B1"/>
<path d="M684.049 432.839L675.579 424.938L676.606 405.916H686.091L685.945 407.854L685.237 417.195L684.049 432.839" fill="#BA660C"/>
<path d="M686.614 399.019H676.979L677.158 395.698H686.867L686.614 399.019Z" fill="#8A7C74"/>
<path d="M649.368 385.335H663.592V381.167H649.368V385.335Z" fill="white"/>
<path d="M653.785 395.698H646.692V385.336H653.785V395.698Z" fill="#FCF9EE"/>
<path d="M651.065 454.371H658.159V454.369H651.065V454.371Z" fill="#5BCAE8"/>
<path d="M658.159 454.37H651.065L650.482 442.406H657.576L657.677 444.485L657.432 445.573L657.743 445.838L658.159 454.37ZM655.804 405.916H648.709L648.434 400.229L648.376 399.019H655.467H655.47L655.528 400.229L655.804 405.916Z" fill="#F5EED2"/>
<path d="M657.576 442.406H650.481L648.709 405.916H655.804L656.533 420.96L653.224 421.978L655.427 426.213L655.027 434.885L657.424 439.285L657.576 442.406Z" fill="#BA660C"/>
<path d="M683.146 444.743L683.323 442.406L684.049 432.839L684.08 432.868L683.146 444.743Z" fill="#2F63B2"/>
<path d="M674.049 453.236H666.448L657.743 445.838L657.677 444.485L658.146 442.406H674.635L674.049 453.236" fill="#9D868F"/>
<path d="M674.635 442.406H658.146L658.433 441.136L657.424 439.285L656.533 420.96L667.65 417.541L675.579 424.938L674.635 442.406Z" fill="#9C2337"/>
<path d="M683.061 445.826L683.319 442.406H683.323L684.049 432.839L683.323 442.406L683.146 444.743L683.061 445.826" fill="#264D97"/>
<path d="M682.477 453.236H674.049L674.635 442.406H683.319L683.061 445.826L682.477 453.236Z" fill="#7B647C"/>
<path d="M683.323 442.406H674.635L675.579 424.938L684.049 432.839L683.323 442.406Z" fill="#7B1D30"/>
<path d="M657.743 445.838L657.432 445.573L657.677 444.485L657.743 445.838" fill="#A18FA6"/>
<path d="M657.424 439.284L655.027 434.885L655.428 426.213L653.224 421.978L656.534 420.96L657.424 439.284Z" fill="#A2324C"/>
<path d="M713.272 435.69L692.202 415.023" stroke="#F7967C" stroke-width="9.91283" stroke-miterlimit="10" stroke-linecap="round" stroke-linejoin="round"/>
<path d="M711.458 453.38L690.94 451.095C689.852 450.966 690.815 448.46 689.851 448.073C691.594 442.967 694.984 433.283 694.984 433.283C694.984 433.283 697.367 418.452 698.507 414.918L718.438 433.752C722.194 436.278 732.003 455.189 711.458 453.38" fill="#F7967C"/>
<path d="M705.833 439.597C706.277 446.749 700.84 452.045 693.752 451.365L682.671 450.304C675.584 449.624 670.293 443.228 670.916 436.089L671.648 427.695C672.27 420.556 678.579 415.271 685.667 415.951L691.592 416.518C698.679 417.197 704.841 423.605 705.285 430.758L705.833 439.597Z" fill="#F7967C"/>
<path d="M672.76 420.239L656.429 419.155" stroke="#F9AE8C" stroke-width="10.6687" stroke-miterlimit="10" stroke-linecap="round"/>
<path d="M692.833 422.452L674.39 420.825" stroke="#F7967C" stroke-width="11.8581" stroke-miterlimit="10" stroke-linecap="round"/>
<path d="M675.024 432.188L655.828 430.045" stroke="#F9AE8C" stroke-width="10.6687" stroke-miterlimit="10" stroke-linecap="round"/>
<path d="M685.743 432.983L675.037 432.04" stroke="#F7967C" stroke-width="11.8581" stroke-miterlimit="10" stroke-linecap="round"/>
<path d="M678.083 443.982L659.435 441.943" stroke="#F9AE8C" stroke-width="10.6687" stroke-miterlimit="10" stroke-linecap="round"/>
<path d="M689.907 444.912L678.091 443.903" stroke="#F7967C" stroke-width="11.8581" stroke-miterlimit="10" stroke-linecap="round"/>
<path d="M509.654 443.068V448.876C509.654 451.78 507.298 454.164 504.401 454.164H362.43C359.544 454.164 357.187 451.78 357.187 448.876V443.068C357.187 440.164 359.544 437.793 362.43 437.793H504.401C507.298 437.793 509.654 440.164 509.654 443.068Z" fill="#838385"/>
<path d="M499.339 439.317L482.447 454.164H362.43C359.544 454.164 357.187 451.78 357.187 448.876V443.068C357.187 440.164 359.544 437.793 362.43 437.793H496.273L499.339 439.317Z" fill="#515151"/>
<path d="M586.207 448.88C586.207 451.786 583.845 454.164 580.957 454.164H506.65C503.762 454.164 501.401 451.786 501.401 448.88V443.073C501.401 440.167 503.762 437.789 506.65 437.789H580.957C583.845 437.789 586.206 440.167 586.206 443.073L586.207 448.88Z" fill="#8C8E95"/>
<path d="M524.56 452.106H514.335C513.104 452.106 512.096 451.092 512.096 449.853V447.378C512.096 447.295 512.101 447.213 512.109 447.133C512.232 448.257 513.187 449.139 514.335 449.139H516.574L524.56 449.14C525.709 449.14 526.662 448.257 526.785 447.133C526.793 447.214 526.798 447.295 526.798 447.378V449.854C526.798 451.093 525.791 452.106 524.56 452.106Z" fill="#3E3B4F"/>
<path d="M526.785 447.133C526.662 446.009 525.709 445.125 524.56 445.125H524.557V444.411C524.557 443.172 523.551 442.16 522.32 442.16L516.558 442.158C516.564 442.158 516.568 442.158 516.574 442.158L524.56 442.16C525.791 442.16 526.798 443.172 526.798 444.411V446.887C526.798 446.97 526.793 447.052 526.785 447.133Z" fill="#3D3547"/>
<path d="M524.56 449.14L516.574 449.139H522.32C523.551 449.139 524.557 448.126 524.557 446.887V445.125H524.56C525.709 445.125 526.662 446.009 526.785 447.133C526.662 448.257 525.709 449.14 524.56 449.14Z" fill="#382D3E"/>
<path d="M512.109 447.133C512.101 447.052 512.096 446.969 512.096 446.886V444.411C512.096 443.172 513.104 442.158 514.335 442.158H516.558C515.335 442.168 514.336 443.178 514.337 444.411V445.125H514.335C513.187 445.125 512.232 446.007 512.109 447.133" fill="#3D3547"/>
<path d="M516.574 449.139H514.335C513.187 449.139 512.232 448.257 512.109 447.133C512.232 446.007 513.187 445.125 514.335 445.125H514.337V446.887C514.337 448.125 515.343 449.139 516.574 449.139Z" fill="#382D3E"/>
<path d="M524.557 445.125H514.337V444.411C514.336 443.178 515.335 442.168 516.558 442.158L522.32 442.16C523.551 442.16 524.557 443.172 524.557 444.411V445.125Z" fill="#372C3C"/>
<path d="M522.32 449.139H516.574C515.343 449.139 514.337 448.125 514.337 446.887V445.125H524.557V446.887C524.557 448.126 523.551 449.139 522.32 449.139" fill="#362938"/>
<path d="M525.99 446.887C525.99 448.126 524.983 449.139 523.752 449.139H515.767C514.535 449.139 513.528 448.125 513.528 446.887V444.411C513.528 443.172 514.535 442.158 515.767 442.158L523.752 442.16C524.983 442.16 525.99 443.172 525.99 444.411V446.887Z" fill="#E1DFE3"/>
<path d="M529.98 446.887C529.98 448.126 528.973 449.14 527.742 449.14L519.757 449.139C518.526 449.139 517.518 448.126 517.518 446.887V444.411C517.518 443.172 518.526 442.158 519.757 442.158L527.742 442.16C528.973 442.16 529.98 443.172 529.98 444.411V446.887Z" fill="white"/>
<path d="M791.479 479.36H962.382C969.524 479.36 975.314 473.534 975.314 466.345V466.343C975.314 459.154 969.524 453.328 962.382 453.328H771.042C763.899 453.328 753.409 459.154 753.409 466.343L758.111 466.345C758.111 473.534 784.337 479.36 791.479 479.36Z" fill="#BA660C"/>
<path d="M175.811 466.347C175.811 473.536 181.6 479.362 188.742 479.362H796.667C803.809 479.362 809.598 473.536 809.598 466.347C809.598 459.16 803.809 453.334 796.667 453.334H188.742C181.6 453.334 175.811 459.16 175.811 466.347Z" fill="#975208"/>
<path d="M675.526 599.348C675.526 586.085 686.685 574.841 701.112 574.841H721.751" stroke="#2D2D2D" stroke-width="26.6667" stroke-miterlimit="10" stroke-linecap="round" stroke-linejoin="round"/>
<path d="M502.391 433.748C502.709 436.636 500.608 438.999 497.72 438.999H357.231C354.343 438.999 351.72 436.636 351.4 433.748L336.461 298.542C336.142 295.653 338.244 293.29 341.131 293.29H481.62C484.508 293.29 487.131 295.654 487.451 298.542L502.391 433.748" fill="#8C8E95"/>
<path d="M503.961 435.237C504.184 437.306 502.797 438.999 500.878 438.999C498.958 438.999 497.205 437.306 496.981 435.237L492.615 394.901C492.392 392.832 492.026 389.446 491.803 387.377L487.802 350.285C487.578 348.216 487.333 345.945 487.256 345.237C487.179 344.531 486.931 342.259 486.708 340.19L485.336 327.546C485.111 325.477 484.746 322.091 484.522 320.022L482.043 297.056C481.821 294.987 483.208 293.294 485.127 293.294C487.047 293.294 488.798 294.987 489.021 297.056L489.58 302.267C489.801 304.336 490.05 306.643 490.132 307.395C490.213 308.145 490.463 310.452 490.686 312.521L492.885 332.881C493.108 334.95 493.393 337.597 493.518 338.764C493.643 339.931 493.929 342.579 494.153 344.648L497.994 380.067C498.218 382.135 498.584 385.521 498.808 387.59L503.961 435.237Z" fill="#8C8E95"/>
<path d="M427.451 369.324C428.293 376.004 423.595 381.42 416.957 381.42C410.318 381.42 404.256 376.004 403.414 369.324C402.573 362.642 407.272 357.227 413.909 357.227C420.548 357.227 426.611 362.642 427.451 369.324Z" fill="#7E818B"/>
<path d="M779.157 358.15L740.685 369.948L736.677 359.007L775.346 347.599C777.401 353.189 779.157 358.15 779.157 358.15Z" fill="white"/>
<path d="M719.107 188.104C717.135 215.73 710.352 223.192 699.626 223.192C690.827 223.192 683.537 210.966 683.852 208.109C684.167 205.251 687.322 188.422 689.846 187.469C692.371 186.517 719.107 188.104 719.107 188.104Z" fill="#B36818"/>
<path d="M693.994 217.31C694.936 215.407 695.682 217.796 696.173 220.187C696.59 222.223 696.824 224.258 696.836 223.643C697.283 200.126 717.294 217.634 718.871 191.598C720.216 169.396 720.405 169.202 721.002 158.416C722.184 136.982 709.814 114.243 664.3 114.594C638.961 114.789 632.461 124.693 626.748 137.681C616.108 161.873 624.697 192.947 624.697 192.947L693.994 217.31Z" fill="#C57622"/>
<path d="M620.143 207.17C620.143 215.995 627.782 236.331 632.524 242.415C634.547 245.011 637.339 250.906 643.76 252.865C646.476 253.694 649.752 252.523 652.481 251.353C655.621 250.008 658.037 248.662 658.037 250.361C658.037 253.807 660.246 255.844 662.7 255.844C691.879 255.844 706.302 224.209 706.302 202.658L697.309 174.388C697.309 150.794 681.753 133.835 659.109 134.01C636.466 134.184 618.234 149.723 618.234 173.316L620.143 207.17Z" fill="#EE7C6B"/>
<path d="M617.642 172.402L617.945 181.774L618.755 207.188C619.615 231.94 625.13 254.808 654.986 254.553C684.791 254.349 692.785 218.036 691.976 194.506L690.559 174.032C690.559 173.167 690.559 172.3 690.508 171.486C689.9 140.775 677.503 129.52 655.593 129.52C625.686 129.52 616.831 148.822 617.642 172.402" fill="#F8A478"/>
<path d="M644.199 212.875C639.95 212.88 636.334 210.464 636.522 208C636.59 207.102 637.479 206.021 639.146 206.81C639.91 207.173 641.976 207.596 644.171 207.583C646.368 207.568 647.558 207.124 648.798 206.749C651.501 205.932 652.353 207.003 652.422 207.9C652.609 210.361 648.45 212.827 644.199 212.875Z" fill="#E6624F"/>
<path d="M691.533 192.349C690.912 201.142 695.355 208.694 701.453 209.219C707.551 209.743 712.997 203.039 713.617 194.246C714.237 185.453 710.837 178.608 704.798 177.523C698.758 176.437 692.152 183.556 691.533 192.349" fill="#FFA373"/>
<path d="M665.717 190.406C665.717 192.495 664.022 194.202 661.929 194.218C659.837 194.234 658.141 192.553 658.141 190.465C658.141 188.375 659.837 186.668 661.929 186.652C664.022 186.637 665.717 188.317 665.717 190.406Z" fill="#3B2523"/>
<path d="M632.261 190.991C632.261 193.08 630.564 194.787 628.471 194.803C626.379 194.82 624.683 193.139 624.683 191.049C624.683 188.96 626.379 187.254 628.471 187.238C630.564 187.221 632.261 188.902 632.261 190.991Z" fill="#3B2523"/>
<path d="M672.346 172.497L655.298 172.152C653.99 172.125 652.91 173.17 652.882 174.486C652.857 175.802 653.895 176.89 655.203 176.917L672.25 177.261C673.558 177.288 674.639 176.243 674.665 174.927C674.692 173.611 673.653 172.523 672.346 172.497Z" fill="#8B2F23"/>
<path d="M633.917 172.797L619.237 173.863C617.933 173.958 616.952 175.099 617.045 176.412C617.14 177.725 618.274 178.712 619.578 178.617L634.259 177.551C635.563 177.456 636.544 176.315 636.45 175.002C636.355 173.69 635.222 172.702 633.917 172.797Z" fill="#8B2F23"/>
<path d="M700.714 170.823C700.714 157.461 694.767 145.526 685.499 137.716C689.967 132.13 691.588 123.778 690.635 123.011C689.057 121.741 668.606 106.441 644.472 120.492C627.945 130.114 620.381 136.573 623.21 143.401L623.101 143.634L623.244 143.484C625.802 149.555 631.48 153.493 636.528 153.493C657.666 153.493 657.218 141.001 672.968 142.221C679.12 142.698 688.466 146.627 688.466 162.106C688.466 178.896 691.195 196.405 691.301 196.411C696.249 196.734 696.314 193.502 696.314 193.502C696.314 184.611 697.636 179.638 703.254 176.99L700.714 170.823" fill="#C57622"/>
<path d="M638.316 227.502C640.778 229.252 644.532 229.532 647.785 229.531C651.038 229.53 656.292 229.243 658.765 227.492" stroke="#E6624F" stroke-width="5.73371" stroke-miterlimit="10" stroke-linecap="round"/>
<path d="M674.579 175.524C670.634 175.114 666.262 174.889 661.929 174.706C658.859 174.587 655.831 174.511 652.884 174.483C652.91 173.185 653.964 172.15 655.249 172.15C655.265 172.15 655.282 172.15 655.298 172.152L672.346 172.496C673.653 172.523 674.692 173.611 674.665 174.927C674.662 175.134 674.632 175.334 674.579 175.524" fill="#78211A"/>
<path d="M619.405 178.624C618.802 178.624 618.245 178.393 617.823 178.01L617.711 174.576C618.102 174.174 618.635 173.907 619.237 173.863L633.917 172.797C633.975 172.793 634.033 172.791 634.09 172.791C635.315 172.791 636.351 173.739 636.449 174.985C629.446 175.571 623.85 176.694 620.696 178.536L619.578 178.617C619.519 178.621 619.463 178.624 619.405 178.624" fill="#78211A"/>
<path d="M689.466 181.774C689.462 181.732 689.458 181.691 689.453 181.65C689.122 178.077 688.825 174.093 688.646 169.977C689.111 173.725 689.384 177.668 689.466 181.774ZM636.529 153.493C631.708 153.493 626.312 149.901 623.608 144.291C629.244 135.254 639.291 129.52 655.593 129.52C666.849 129.52 675.321 135.207 680.978 144.9C678.325 143.136 675.398 142.41 672.968 142.221C672.233 142.164 671.537 142.138 670.87 142.138C657.214 142.138 656.681 153.493 636.529 153.493Z" fill="#B06210"/>
</svg>
