<svg width="525" height="570" viewBox="0 0 525 570" fill="none" xmlns="http://www.w3.org/2000/svg">
<g filter="url(#filter0_d)">
<circle cx="365.5" cy="406.5" r="155.5" fill="#F6C53C"/>
<circle cx="365.5" cy="155.5" r="155.5" fill="#0076FF"/>
<g filter="url(#filter1_dd)">
<circle cx="264" cy="275" r="257" fill="white"/>
</g>
<g filter="url(#filter2_dd)">
<circle cx="263.5" cy="275.5" r="197.5" fill="white"/>
</g>
<g filter="url(#filter3_dd)">
<circle cx="264" cy="275" r="146" fill="white"/>
</g>
</g>
<g filter="url(#filter4_dd)">
<circle cx="264" cy="122" r="56" fill="white"/>
</g>
<path d="M284.604 99.4444H298.31L264.044 158.556L229.778 99.4444H243.313H255.991L264.044 113.151L271.925 99.4444H284.604Z" fill="#41B883"/>
<path d="M229.778 99.4444L264.044 158.556L298.31 99.4444H284.604L264.044 134.911L243.313 99.4444H229.778Z" fill="#41B883"/>
<path d="M243.313 99.4444L264.044 135.082L284.604 99.4444H271.925L264.044 113.151L255.991 99.4444H243.313Z" fill="#35495E"/>
<g filter="url(#filter5_dd)">
<circle cx="118" cy="211" r="56" fill="white"/>
</g>
<path d="M123.313 182H115.292V190.021H123.313V182Z" fill="#0175BC"/>
<path opacity="0.1" d="M123.313 189.219H115.292V190.021H123.313V189.219Z" fill="#010101"/>
<path opacity="0.2" d="M123.313 182H115.292V182.802H123.313V182Z" fill="white"/>
<path d="M123.313 191.625H115.292V199.646H123.313V191.625Z" fill="#0175BC"/>
<path opacity="0.1" d="M123.313 198.844H115.292V199.646H123.313V198.844Z" fill="#010101"/>
<path opacity="0.2" d="M123.313 191.625H115.292V192.427H123.313V191.625Z" fill="white"/>
<path d="M123.313 201.25H115.292V209.271H123.313V201.25Z" fill="#0175BC"/>
<path opacity="0.1" d="M123.313 208.469H115.292V209.271H123.313V208.469Z" fill="#010101"/>
<path opacity="0.2" d="M123.313 201.25H115.292V202.052H123.313V201.25Z" fill="white"/>
<path d="M113.688 191.625H105.667V199.646H113.688V191.625Z" fill="#0175BC"/>
<path opacity="0.1" d="M113.688 198.844H105.667V199.646H113.688V198.844Z" fill="#010101"/>
<path opacity="0.2" d="M113.688 191.625H105.667V192.427H113.688V191.625Z" fill="white"/>
<path d="M113.688 201.25H105.667V209.271H113.688V201.25Z" fill="#0175BC"/>
<path opacity="0.1" d="M113.688 208.469H105.667V209.271H113.688V208.469Z" fill="#010101"/>
<path opacity="0.2" d="M113.688 201.25H105.667V202.052H113.688V201.25Z" fill="white"/>
<path d="M104.062 191.625H96.0417V199.646H104.062V191.625Z" fill="#0175BC"/>
<path opacity="0.1" d="M104.062 198.844H96.0417V199.646H104.062V198.844Z" fill="#010101"/>
<path opacity="0.2" d="M104.062 191.625H96.0417V192.427H104.062V191.625Z" fill="white"/>
<path d="M104.062 201.25H96.0417V209.271H104.062V201.25Z" fill="#0175BC"/>
<path opacity="0.1" d="M104.062 208.469H96.0417V209.271H104.062V208.469Z" fill="#010101"/>
<path opacity="0.2" d="M104.062 201.25H96.0417V202.052H104.062V201.25Z" fill="white"/>
<path d="M94.4375 201.25H86.4167V209.271H94.4375V201.25Z" fill="#0175BC"/>
<path opacity="0.1" d="M94.4375 208.469H86.4167V209.271H94.4375V208.469Z" fill="#010101"/>
<path opacity="0.2" d="M94.4375 201.25H86.4167V202.052H94.4375V201.25Z" fill="white"/>
<path d="M132.937 201.25H124.917V209.271H132.937V201.25Z" fill="#0175BC"/>
<path opacity="0.1" d="M132.937 208.469H124.917V209.271H132.937V208.469Z" fill="#010101"/>
<path opacity="0.2" d="M132.937 201.25H124.917V202.052H132.937V201.25Z" fill="white"/>
<path d="M155.7 208.383C155.477 208.238 150.894 205.343 146.56 206.033C145.511 201.64 141.482 198.905 141.284 198.773L140.169 198.031C140.169 198.031 139.471 198.754 139.238 198.996C139.153 199.084 138.934 199.336 138.674 199.791C137.952 201.049 136.909 203.862 137.487 209.064C137.543 209.553 137.396 210.035 137.083 210.383C136.801 210.7 136.409 210.875 135.98 210.875H80V212.479C80 237.093 97.9497 239.75 105.667 239.75C125.537 239.75 139.348 227.681 145.376 217.044C153.319 215.778 156.069 210.789 156.214 210.551L157 209.219L155.7 208.383Z" fill="#0175BC"/>
<path opacity="0.2" d="M135.98 210.875H80V211.677H135.98C136.409 211.677 136.801 211.502 137.083 211.185C137.396 210.837 137.543 210.355 137.487 209.866C137.468 209.701 137.471 209.568 137.456 209.408C137.426 209.771 137.32 210.119 137.083 210.383C136.801 210.7 136.409 210.875 135.98 210.875Z" fill="white"/>
<path opacity="0.2" d="M155.7 208.383C155.477 208.238 150.893 205.343 146.56 206.033C145.511 201.64 141.482 198.905 141.284 198.773L140.169 198.031C140.169 198.031 139.471 198.754 139.238 198.996C139.174 199.062 139.036 199.221 138.861 199.49C138.257 200.417 137.221 202.649 137.34 206.857C137.376 202.036 138.969 200.077 139.238 199.798L140.169 198.833L141.284 199.575C141.482 199.707 145.511 202.442 146.56 206.835C150.893 206.146 157 209.219 157 209.219L155.7 208.383Z" fill="white"/>
<path opacity="0.1" d="M156.214 209.749C156.069 209.987 153.319 214.976 145.376 216.242C139.348 226.879 125.537 238.948 105.667 238.948C97.9497 238.948 80 236.291 80 211.677V212.479C80 237.093 97.9497 239.75 105.667 239.75C125.537 239.75 139.348 227.681 145.376 217.044C153.319 215.778 156.069 210.789 156.214 210.551L157 209.219L156.657 208.998L156.214 209.749Z" fill="#010101"/>
<path d="M123.312 191.625H115.292V199.646H123.312V191.625ZM123.312 201.25H115.292V209.271H123.312V201.25ZM132.938 201.25H124.917V209.271H132.938V201.25ZM123.312 182H115.292V190.021H123.312V182ZM113.688 191.625H105.667V199.646H113.688V191.625ZM94.4375 201.25H86.4167V209.271H94.4375V201.25ZM155.7 208.383C155.477 208.238 150.894 205.343 146.56 206.033C145.511 201.64 141.482 198.905 141.284 198.773L140.169 198.031C140.169 198.031 139.471 198.754 139.238 198.996C139.153 199.084 138.935 199.336 138.673 199.791C137.952 201.049 136.909 203.862 137.487 209.064C137.543 209.553 137.396 210.035 137.083 210.383C136.801 210.7 136.409 210.875 135.98 210.875H80V212.479C80 237.093 97.9497 239.75 105.667 239.75C125.537 239.75 139.348 227.681 145.376 217.044C153.319 215.778 156.069 210.789 156.214 210.551L157 209.219L155.7 208.383ZM113.688 201.25H105.667V209.271H113.688V201.25ZM104.062 191.625H96.0417V199.646H104.062V191.625ZM104.062 201.25H96.0417V209.271H104.062V201.25Z" fill="url(#paint0_linear)"/>
<g filter="url(#filter6_dd)">
<circle cx="118" cy="359" r="56" fill="white"/>
</g>
<path d="M141.402 359.376C141.402 353.846 136.919 349.363 131.389 349.363H89.532C88.539 352.524 88 355.887 88 359.376C88 362.865 88.539 366.228 89.532 369.389H131.389C136.919 369.389 141.402 364.906 141.402 359.376Z" fill="#29B6F6"/>
<path d="M121.376 392.752C132.263 392.752 141.911 387.524 148 379.455C144.464 376.316 139.825 374.395 134.726 374.395H91.5996C97.0999 385.276 108.353 392.752 121.376 392.752Z" fill="#4DB6AC"/>
<path d="M121.376 326C108.351 326 97.0999 333.476 91.5996 344.357H134.726C139.818 344.357 144.452 342.441 147.987 339.31C141.901 331.237 132.265 326 121.376 326Z" fill="#FFCA28"/>
<path d="M116.491 344.357C113.967 338.738 110.075 333.863 105.232 330.17C99.3762 333.414 94.6035 338.369 91.5762 344.357H116.491Z" fill="#F9A825"/>
<path d="M105.232 388.582C110.075 384.889 113.965 380.014 116.491 374.395H91.5762C94.6035 380.383 99.3762 385.338 105.232 388.582Z" fill="#009688"/>
<path d="M89.5486 349.363C88.554 352.526 88 355.883 88 359.376C88 362.869 88.554 366.226 89.5486 369.389H118.309C119.212 366.205 119.707 362.849 119.707 359.376C119.707 355.903 119.212 352.547 118.31 349.363H89.5486Z" fill="#212121"/>
<g filter="url(#filter7_dd)">
<circle cx="264" cy="276" r="65" fill="white"/>
</g>
<path d="M263.99 242.992C263.058 242.992 262.135 243.22 261.332 243.677L236.169 258.207C234.543 259.139 233.531 260.924 233.531 262.799V289.152C233.531 291.056 234.543 292.811 236.169 293.754L242.775 297.562C245.979 299.129 247.119 299.129 248.557 299.129C253.308 299.129 256.026 296.263 256.026 291.284V264.098C256.026 263.691 255.698 263.354 255.292 263.354H252.118C251.682 263.354 251.374 263.691 251.374 264.098V291.254C251.374 293.496 249.073 295.678 245.344 293.823L238.431 289.836C238.173 289.707 238.024 289.429 238.024 289.152V262.829C238.024 262.521 238.173 262.263 238.431 262.105L263.593 247.594C263.821 247.436 264.129 247.436 264.387 247.594L289.549 262.105C289.797 262.263 289.956 262.521 289.956 262.799V289.152C289.956 289.429 289.797 289.707 289.569 289.836L264.387 304.386C264.149 304.515 263.821 304.515 263.593 304.386L257.117 300.557C256.938 300.429 256.69 300.399 256.512 300.508C254.707 301.52 254.379 301.648 252.703 302.234C252.297 302.353 251.662 302.611 252.931 303.325L261.332 308.304C262.145 308.76 263.058 309.008 263.98 309.008C264.912 309.008 265.825 308.76 266.638 308.304L291.831 293.754C293.457 292.811 294.469 291.056 294.469 289.152V262.829C294.469 260.924 293.457 259.169 291.831 258.227L266.638 243.677C265.835 243.22 264.912 242.992 263.99 242.992ZM270.754 263.315C263.574 263.315 259.279 266.359 259.279 271.438C259.279 276.952 263.544 278.47 270.447 279.154C278.699 279.967 279.334 281.197 279.334 282.814C279.334 285.611 277.082 286.801 271.776 286.801C265.091 286.801 263.623 285.125 263.137 281.822C263.088 281.475 262.78 281.217 262.433 281.217H259.15C258.743 281.217 258.446 281.554 258.446 281.931C258.446 286.176 260.747 291.215 271.776 291.215C279.74 291.215 284.312 288.07 284.312 282.586C284.312 277.16 280.633 275.702 272.907 274.661C265.061 273.649 264.278 273.114 264.278 271.289C264.278 269.761 264.962 267.758 270.754 267.758C275.912 267.758 277.836 268.879 278.619 272.35C278.699 272.687 278.977 272.935 279.334 272.935H282.616C282.815 272.935 282.993 272.836 283.142 272.687C283.271 272.558 283.35 272.36 283.321 272.122C282.815 266.131 278.828 263.315 270.754 263.315Z" fill="#83CD29"/>
<g filter="url(#filter8_dd)">
<circle cx="264" cy="428" r="56" fill="white"/>
</g>
<path d="M242.15 398C237.686 398 234 401.686 234 406.15V449.85C234 454.314 237.686 458 242.15 458H285.85C290.314 458 294 454.314 294 449.85V406.15C294 401.686 290.314 398 285.85 398H242.15ZM242.15 403.455H285.85C285.85 403.455 288.545 404.626 288.545 406.15V449.85C288.545 451.374 287.374 452.545 285.85 452.545H242.15C240.626 452.545 239.455 451.374 239.455 449.85V406.15C239.455 404.626 240.626 403.455 242.15 403.455ZM263.616 411.658C255.786 412.041 253.08 417.4 253.091 422.386C253.102 428.49 260.367 430.706 261.699 431.185C263.02 431.665 266.301 432.581 266.301 434.562C266.301 436.224 264.671 436.661 261.805 436.651C258.45 436.629 253.091 433.838 253.091 433.838V442.031C253.091 442.031 256.319 444.523 263.169 444.364C270.626 444.183 274.408 440.667 274.877 434.989C275.335 429.31 271.564 426.477 267.91 425.188C264.234 423.898 261.901 423.163 261.88 421.235C261.848 418.742 265.843 419.317 268.123 419.754C270.531 420.223 273.258 421.853 273.258 421.853V413.128C269.412 411.956 266.227 411.53 263.616 411.658Z" fill="#665BFF"/>
<g filter="url(#filter9_dd)">
<circle cx="405" cy="359" r="56" fill="white"/>
</g>
<path d="M440 352.275C440 388.15 405 399 405 399C405 399 370 388.15 370 352.275C370 347.9 370.389 344.225 370.778 341.25C371.361 336.875 374.667 333.375 379.333 332.325C385.361 330.75 394.889 329 405 329C415.111 329 424.639 330.75 430.861 332.325C435.528 333.375 438.833 337.05 439.417 341.25C439.611 344.225 440 348.075 440 352.275Z" fill="#5D4037"/>
<path d="M405 334.25C414.528 334.25 423.472 336 429.306 337.4C431.639 337.925 433.194 339.675 433.583 341.95C433.972 345.275 434.167 348.775 434.167 352.275C434.167 379.575 411.806 390.6 405 393.225C398.194 390.425 375.833 379.4 375.833 352.275C375.833 348.775 376.028 345.275 376.417 341.95C376.611 339.675 378.361 337.925 380.694 337.4C386.528 336 395.472 334.25 405 334.25ZM405 329C394.889 329 385.361 330.75 379.139 332.325C374.667 333.375 371.167 337.05 370.778 341.25C370.389 344.225 370 348.075 370 352.275C370 388.15 405 399 405 399C405 399 440 388.15 440 352.275C440 347.9 439.611 344.225 439.222 341.25C438.639 336.875 435.333 333.375 430.667 332.325C424.639 330.75 415.111 329 405 329Z" fill="#4CAF50"/>
<path d="M403.056 371H406.944V385H403.056V371Z" fill="#DCEDC8"/>
<path d="M405 339.5C405 339.5 393.333 348.25 393.333 362.25C393.333 371.35 399.75 377.125 403.056 379.75L405 374.5L406.944 379.75C410.25 377.125 416.667 371.35 416.667 362.25C416.667 348.25 405 339.5 405 339.5Z" fill="#4CAF50"/>
<path d="M405 339.5C405 339.5 393.333 348.25 393.333 362.25C393.333 371.35 399.75 377.125 403.056 379.75L405 374.5V339.5Z" fill="#81C784"/>
<g filter="url(#filter10_dd)">
<circle cx="405" cy="211" r="56" fill="white"/>
</g>
<path d="M407.078 186.383C406.475 185.206 404.788 185.203 404.191 186.383L400.523 193.298L392.069 176.98C391.333 175.614 389.259 175.959 389.019 177.487L380.505 232.37L415.266 202.297L407.078 186.383Z" fill="#FFA000"/>
<path d="M408.305 208.319L400.523 193.3L380.505 232.37L408.305 208.319Z" fill="#F57F17"/>
<path d="M424.03 191.497C423.827 190.244 422.288 189.747 421.389 190.647L380.505 232.378L403.128 244.275C404.561 245.075 406.306 245.075 407.739 244.277L430.5 232.383L424.03 191.497Z" fill="#FFCA28"/>
<defs>
<filter id="filter0_d" x="3" y="0" width="522" height="570" filterUnits="userSpaceOnUse" color-interpolation-filters="sRGB">
<feFlood flood-opacity="0" result="BackgroundImageFix"/>
<feColorMatrix in="SourceAlpha" type="matrix" values="0 0 0 0 0 0 0 0 0 0 0 0 0 0 0 0 0 0 127 0"/>
<feOffset dy="4"/>
<feGaussianBlur stdDeviation="2"/>
<feColorMatrix type="matrix" values="0 0 0 0 0.377225 0 0 0 0 0.712334 0 0 0 0 0.955 0 0 0 0.25 0"/>
<feBlend mode="normal" in2="BackgroundImageFix" result="effect1_dropShadow"/>
<feBlend mode="normal" in="SourceGraphic" in2="effect1_dropShadow" result="shape"/>
</filter>
<filter id="filter1_dd" x="0" y="11" width="525" height="529" filterUnits="userSpaceOnUse" color-interpolation-filters="sRGB">
<feFlood flood-opacity="0" result="BackgroundImageFix"/>
<feColorMatrix in="SourceAlpha" type="matrix" values="0 0 0 0 0 0 0 0 0 0 0 0 0 0 0 0 0 0 127 0"/>
<feOffset dx="-2" dy="-2"/>
<feGaussianBlur stdDeviation="2.5"/>
<feColorMatrix type="matrix" values="0 0 0 0 0 0 0 0 0 0 0 0 0 0 0 0 0 0 0.25 0"/>
<feBlend mode="normal" in2="BackgroundImageFix" result="effect1_dropShadow"/>
<feColorMatrix in="SourceAlpha" type="matrix" values="0 0 0 0 0 0 0 0 0 0 0 0 0 0 0 0 0 0 127 0"/>
<feOffset dy="4"/>
<feGaussianBlur stdDeviation="2"/>
<feColorMatrix type="matrix" values="0 0 0 0 0 0 0 0 0 0 0 0 0 0 0 0 0 0 0.25 0"/>
<feBlend mode="normal" in2="effect1_dropShadow" result="effect2_dropShadow"/>
<feBlend mode="normal" in="SourceGraphic" in2="effect2_dropShadow" result="shape"/>
</filter>
<filter id="filter2_dd" x="60" y="72" width="405" height="409" filterUnits="userSpaceOnUse" color-interpolation-filters="sRGB">
<feFlood flood-opacity="0" result="BackgroundImageFix"/>
<feColorMatrix in="SourceAlpha" type="matrix" values="0 0 0 0 0 0 0 0 0 0 0 0 0 0 0 0 0 0 127 0"/>
<feOffset dx="-2" dy="-2"/>
<feGaussianBlur stdDeviation="2"/>
<feColorMatrix type="matrix" values="0 0 0 0 0 0 0 0 0 0 0 0 0 0 0 0 0 0 0.05 0"/>
<feBlend mode="normal" in2="BackgroundImageFix" result="effect1_dropShadow"/>
<feColorMatrix in="SourceAlpha" type="matrix" values="0 0 0 0 0 0 0 0 0 0 0 0 0 0 0 0 0 0 127 0"/>
<feOffset dy="4"/>
<feGaussianBlur stdDeviation="2"/>
<feColorMatrix type="matrix" values="0 0 0 0 0 0 0 0 0 0 0 0 0 0 0 0 0 0 0.05 0"/>
<feBlend mode="normal" in2="effect1_dropShadow" result="effect2_dropShadow"/>
<feBlend mode="normal" in="SourceGraphic" in2="effect2_dropShadow" result="shape"/>
</filter>
<filter id="filter3_dd" x="112" y="123" width="302" height="306" filterUnits="userSpaceOnUse" color-interpolation-filters="sRGB">
<feFlood flood-opacity="0" result="BackgroundImageFix"/>
<feColorMatrix in="SourceAlpha" type="matrix" values="0 0 0 0 0 0 0 0 0 0 0 0 0 0 0 0 0 0 127 0"/>
<feOffset dx="-2" dy="-2"/>
<feGaussianBlur stdDeviation="2"/>
<feColorMatrix type="matrix" values="0 0 0 0 0 0 0 0 0 0 0 0 0 0 0 0 0 0 0.05 0"/>
<feBlend mode="normal" in2="BackgroundImageFix" result="effect1_dropShadow"/>
<feColorMatrix in="SourceAlpha" type="matrix" values="0 0 0 0 0 0 0 0 0 0 0 0 0 0 0 0 0 0 127 0"/>
<feOffset dy="4"/>
<feGaussianBlur stdDeviation="2"/>
<feColorMatrix type="matrix" values="0 0 0 0 0 0 0 0 0 0 0 0 0 0 0 0 0 0 0.05 0"/>
<feBlend mode="normal" in2="effect1_dropShadow" result="effect2_dropShadow"/>
<feBlend mode="normal" in="SourceGraphic" in2="effect2_dropShadow" result="shape"/>
</filter>
<filter id="filter4_dd" x="201" y="59" width="123" height="127" filterUnits="userSpaceOnUse" color-interpolation-filters="sRGB">
<feFlood flood-opacity="0" result="BackgroundImageFix"/>
<feColorMatrix in="SourceAlpha" type="matrix" values="0 0 0 0 0 0 0 0 0 0 0 0 0 0 0 0 0 0 127 0"/>
<feOffset dx="-2" dy="-2"/>
<feGaussianBlur stdDeviation="2.5"/>
<feColorMatrix type="matrix" values="0 0 0 0 0 0 0 0 0 0 0 0 0 0 0 0 0 0 0.25 0"/>
<feBlend mode="normal" in2="BackgroundImageFix" result="effect1_dropShadow"/>
<feColorMatrix in="SourceAlpha" type="matrix" values="0 0 0 0 0 0 0 0 0 0 0 0 0 0 0 0 0 0 127 0"/>
<feOffset dy="4"/>
<feGaussianBlur stdDeviation="2"/>
<feColorMatrix type="matrix" values="0 0 0 0 0 0 0 0 0 0 0 0 0 0 0 0 0 0 0.25 0"/>
<feBlend mode="normal" in2="effect1_dropShadow" result="effect2_dropShadow"/>
<feBlend mode="normal" in="SourceGraphic" in2="effect2_dropShadow" result="shape"/>
</filter>
<filter id="filter5_dd" x="55" y="148" width="123" height="127" filterUnits="userSpaceOnUse" color-interpolation-filters="sRGB">
<feFlood flood-opacity="0" result="BackgroundImageFix"/>
<feColorMatrix in="SourceAlpha" type="matrix" values="0 0 0 0 0 0 0 0 0 0 0 0 0 0 0 0 0 0 127 0"/>
<feOffset dx="-2" dy="-2"/>
<feGaussianBlur stdDeviation="2.5"/>
<feColorMatrix type="matrix" values="0 0 0 0 0 0 0 0 0 0 0 0 0 0 0 0 0 0 0.25 0"/>
<feBlend mode="normal" in2="BackgroundImageFix" result="effect1_dropShadow"/>
<feColorMatrix in="SourceAlpha" type="matrix" values="0 0 0 0 0 0 0 0 0 0 0 0 0 0 0 0 0 0 127 0"/>
<feOffset dy="4"/>
<feGaussianBlur stdDeviation="2"/>
<feColorMatrix type="matrix" values="0 0 0 0 0 0 0 0 0 0 0 0 0 0 0 0 0 0 0.25 0"/>
<feBlend mode="normal" in2="effect1_dropShadow" result="effect2_dropShadow"/>
<feBlend mode="normal" in="SourceGraphic" in2="effect2_dropShadow" result="shape"/>
</filter>
<filter id="filter6_dd" x="55" y="296" width="123" height="127" filterUnits="userSpaceOnUse" color-interpolation-filters="sRGB">
<feFlood flood-opacity="0" result="BackgroundImageFix"/>
<feColorMatrix in="SourceAlpha" type="matrix" values="0 0 0 0 0 0 0 0 0 0 0 0 0 0 0 0 0 0 127 0"/>
<feOffset dx="-2" dy="-2"/>
<feGaussianBlur stdDeviation="2.5"/>
<feColorMatrix type="matrix" values="0 0 0 0 0 0 0 0 0 0 0 0 0 0 0 0 0 0 0.25 0"/>
<feBlend mode="normal" in2="BackgroundImageFix" result="effect1_dropShadow"/>
<feColorMatrix in="SourceAlpha" type="matrix" values="0 0 0 0 0 0 0 0 0 0 0 0 0 0 0 0 0 0 127 0"/>
<feOffset dy="4"/>
<feGaussianBlur stdDeviation="2"/>
<feColorMatrix type="matrix" values="0 0 0 0 0 0 0 0 0 0 0 0 0 0 0 0 0 0 0.25 0"/>
<feBlend mode="normal" in2="effect1_dropShadow" result="effect2_dropShadow"/>
<feBlend mode="normal" in="SourceGraphic" in2="effect2_dropShadow" result="shape"/>
</filter>
<filter id="filter7_dd" x="192" y="204" width="141" height="145" filterUnits="userSpaceOnUse" color-interpolation-filters="sRGB">
<feFlood flood-opacity="0" result="BackgroundImageFix"/>
<feColorMatrix in="SourceAlpha" type="matrix" values="0 0 0 0 0 0 0 0 0 0 0 0 0 0 0 0 0 0 127 0"/>
<feOffset dx="-2" dy="-2"/>
<feGaussianBlur stdDeviation="2.5"/>
<feColorMatrix type="matrix" values="0 0 0 0 0 0 0 0 0 0 0 0 0 0 0 0 0 0 0.25 0"/>
<feBlend mode="normal" in2="BackgroundImageFix" result="effect1_dropShadow"/>
<feColorMatrix in="SourceAlpha" type="matrix" values="0 0 0 0 0 0 0 0 0 0 0 0 0 0 0 0 0 0 127 0"/>
<feOffset dy="4"/>
<feGaussianBlur stdDeviation="2"/>
<feColorMatrix type="matrix" values="0 0 0 0 0 0 0 0 0 0 0 0 0 0 0 0 0 0 0.25 0"/>
<feBlend mode="normal" in2="effect1_dropShadow" result="effect2_dropShadow"/>
<feBlend mode="normal" in="SourceGraphic" in2="effect2_dropShadow" result="shape"/>
</filter>
<filter id="filter8_dd" x="201" y="365" width="123" height="127" filterUnits="userSpaceOnUse" color-interpolation-filters="sRGB">
<feFlood flood-opacity="0" result="BackgroundImageFix"/>
<feColorMatrix in="SourceAlpha" type="matrix" values="0 0 0 0 0 0 0 0 0 0 0 0 0 0 0 0 0 0 127 0"/>
<feOffset dx="-2" dy="-2"/>
<feGaussianBlur stdDeviation="2.5"/>
<feColorMatrix type="matrix" values="0 0 0 0 0 0 0 0 0 0 0 0 0 0 0 0 0 0 0.25 0"/>
<feBlend mode="normal" in2="BackgroundImageFix" result="effect1_dropShadow"/>
<feColorMatrix in="SourceAlpha" type="matrix" values="0 0 0 0 0 0 0 0 0 0 0 0 0 0 0 0 0 0 127 0"/>
<feOffset dy="4"/>
<feGaussianBlur stdDeviation="2"/>
<feColorMatrix type="matrix" values="0 0 0 0 0 0 0 0 0 0 0 0 0 0 0 0 0 0 0.25 0"/>
<feBlend mode="normal" in2="effect1_dropShadow" result="effect2_dropShadow"/>
<feBlend mode="normal" in="SourceGraphic" in2="effect2_dropShadow" result="shape"/>
</filter>
<filter id="filter9_dd" x="342" y="296" width="123" height="127" filterUnits="userSpaceOnUse" color-interpolation-filters="sRGB">
<feFlood flood-opacity="0" result="BackgroundImageFix"/>
<feColorMatrix in="SourceAlpha" type="matrix" values="0 0 0 0 0 0 0 0 0 0 0 0 0 0 0 0 0 0 127 0"/>
<feOffset dx="-2" dy="-2"/>
<feGaussianBlur stdDeviation="2.5"/>
<feColorMatrix type="matrix" values="0 0 0 0 0 0 0 0 0 0 0 0 0 0 0 0 0 0 0.25 0"/>
<feBlend mode="normal" in2="BackgroundImageFix" result="effect1_dropShadow"/>
<feColorMatrix in="SourceAlpha" type="matrix" values="0 0 0 0 0 0 0 0 0 0 0 0 0 0 0 0 0 0 127 0"/>
<feOffset dy="4"/>
<feGaussianBlur stdDeviation="2"/>
<feColorMatrix type="matrix" values="0 0 0 0 0 0 0 0 0 0 0 0 0 0 0 0 0 0 0.25 0"/>
<feBlend mode="normal" in2="effect1_dropShadow" result="effect2_dropShadow"/>
<feBlend mode="normal" in="SourceGraphic" in2="effect2_dropShadow" result="shape"/>
</filter>
<filter id="filter10_dd" x="342" y="148" width="123" height="127" filterUnits="userSpaceOnUse" color-interpolation-filters="sRGB">
<feFlood flood-opacity="0" result="BackgroundImageFix"/>
<feColorMatrix in="SourceAlpha" type="matrix" values="0 0 0 0 0 0 0 0 0 0 0 0 0 0 0 0 0 0 127 0"/>
<feOffset dx="-2" dy="-2"/>
<feGaussianBlur stdDeviation="2.5"/>
<feColorMatrix type="matrix" values="0 0 0 0 0 0 0 0 0 0 0 0 0 0 0 0 0 0 0.25 0"/>
<feBlend mode="normal" in2="BackgroundImageFix" result="effect1_dropShadow"/>
<feColorMatrix in="SourceAlpha" type="matrix" values="0 0 0 0 0 0 0 0 0 0 0 0 0 0 0 0 0 0 127 0"/>
<feOffset dy="4"/>
<feGaussianBlur stdDeviation="2"/>
<feColorMatrix type="matrix" values="0 0 0 0 0 0 0 0 0 0 0 0 0 0 0 0 0 0 0.25 0"/>
<feBlend mode="normal" in2="effect1_dropShadow" result="effect2_dropShadow"/>
<feBlend mode="normal" in="SourceGraphic" in2="effect2_dropShadow" result="shape"/>
</filter>
<linearGradient id="paint0_linear" x1="85.5362" y1="199.003" x2="148.149" y2="228.2" gradientUnits="userSpaceOnUse">
<stop stop-color="white" stop-opacity="0.2"/>
<stop offset="1" stop-color="white" stop-opacity="0"/>
</linearGradient>
</defs>
</svg>
